<?xml version="1.0" encoding="UTF-8" standalone="no"?>
<svg xmlns="http://www.w3.org/2000/svg" xmlns:xlink="http://www.w3.org/1999/xlink"
   version="1.0" width="765" height="932" viewBox="-5 1 765 932">
  <defs>
    <path id="main" d="M 244,895.89339 C 210.56797,892.11717 187.06837,878.92796 177.37511,858.5 C 172.31818,847.84283 170.73513,840.23782 170.60992,826 L 170.5,813.5 L 165.5,812.69793 C 128.65628,806.78769 109.64799,793.72576 101.29539,768.57841 C 98.815836,761.11317 98.601331,759.13787 98.469343,742.55427 C 98.355301,728.22538 98.041682,724.45549 96.913257,723.84913 C 96.135966,723.43145 91.622642,721.5585 86.883649,719.68702 C 65.957565,711.42308 52.312207,697.2137 46.371198,677.5 C 45.037648,673.07496 44.554741,668.08759 44.531505,658.5 C 44.494937,643.41071 46.185806,636.56343 53.588187,621.82441 C 56.014684,616.99296 58,612.52958 58,611.90577 C 58,611.28196 55.814404,608.23547 53.143121,605.13579 C 24.580939,571.99303 14.363806,525.46632 28.096703,491.07959 C 44.291605,450.52807 93.403492,419.92787 162,407.6483 C 185.57143,403.42874 201.94645,401.90889 229.5,401.38328 C 257.77669,400.84387 259.52183,400.68848 260.30782,398.64023 C 260.59845,397.88286 259.72764,391.24147 258.3727,383.8816 C 250.45849,340.8926 237.24941,304.82737 215.21217,266.03883 C 198.78163,237.11885 183.5216,199.09358 178.87778,175.5 C 176.96787,165.79646 177.23593,140.99901 179.37782,129.24156 C 187.36728,85.385082 213.5142,55.315361 258.15672,38.643491 C 267.60679,35.114339 297.32289,27 300.79719,27 C 302.30464,27 304.94354,37.603293 319.50406,102.16567 L 336.4559,177.33134 L 399.97795,244.94346 C 434.91508,282.13012 467.79881,317.94307 473.05291,324.52779 C 478.30701,331.11251 495.38174,353.375 510.99677,374 C 552.21423,428.44182 562.75274,441.06605 571.86221,446.91158 C 584.29261,454.88814 593.59358,455.99358 648.30689,455.99718 L 691.11379,456 L 694.66962,463.75 C 705.05883,486.39349 714.4618,515.65424 720.06517,542.77742 C 734.60168,613.14164 727.47594,690.90408 699.82287,763.67945 L 694.76135,777 L 644.35951,777 L 593.95767,777 L 568.22884,802.8262 C 537.94537,833.22427 521.5939,846.96889 493.5,865.64131 C 478.66082,875.50407 467.95987,881.68432 452.69106,889.21017 C 441.15829,894.89457 440.60871,895.05335 429.19106,895.99952 C 397.04522,898.66341 372.14574,896.49129 335.75939,887.84894 L 323.01879,884.82284 L 311.42666,890.91142 L 299.83453,897 L 275.66726,896.87026 C 262.37527,896.79891 248.125,896.35932 244,895.89339 z M 442.41153,864.374 C 493.81632,833.12466 537.73649,795.24604 570.96968,753.5 C 574.47243,749.1 577.73436,745.05 578.21841,744.5 C 578.76976,743.87354 596.72988,743.31323 626.29926,743 L 673.5,742.5 L 676.79364,732.69278 C 683.75826,711.95474 689.78843,684.25453 693.16266,657.5 C 695.07768,642.31556 694.77983,599.67749 692.63525,582 C 689.20199,553.7002 683.20878,526.38535 675.192,502.5 L 671.5,491.5 L 652,490.77774 C 591.15339,488.52406 571.03899,485.6854 557.97567,477.50848 C 551.76589,473.62151 536.49419,458.53489 526.08064,446 C 521.28297,440.225 507.92392,422.9 496.39386,407.5 C 456.42754,354.11942 448.96187,345.41981 380.542,272.5 C 345.44999,235.1 314.8055,202.475 312.44314,200 L 308.14792,195.5 L 294.84387,133.62647 C 287.52665,99.596023 281.04287,71.073313 280.43549,70.242666 C 279.46263,68.9122 278.6269,68.995012 273.41558,70.938254 C 263.50722,74.632973 250.42212,82.019383 242.03107,88.654509 C 225.59649,101.64995 215.36043,119.26886 211.94513,140.44022 C 210.08146,151.99302 211.23872,173.27055 214.34149,184.5 C 219.50571,203.19017 222.86806,210.35314 242.57158,244.63991 C 257.95749,271.41347 262.58041,280.40837 270.50013,298.98108 C 281.83097,325.55325 290.12255,354.15162 293.46673,378.19481 C 294.83869,388.05859 295.28722,394.22734 296.51405,420.1051 L 297.06423,431.71021 L 263.78211,432.41987 C 181.03006,434.18436 133.8494,441.80152 98.48105,459.10717 C 66.871267,474.57375 52.667141,495.95488 54.374293,525.5 C 55.3434,542.27202 61.101832,559.56696 70.04489,572.56524 C 83.098452,591.53795 104.08582,606.14982 126.86089,612.12181 C 137.74998,614.9771 191.29492,616.66604 197.11386,614.33777 C 199.19541,613.50489 227.13384,600.99974 259.19925,586.54854 C 297.88212,569.115 317.60779,559.72806 317.82035,558.65228 C 318.51521,555.13538 302.10429,537.20939 291.67465,530.09279 C 285.26396,525.71849 274.01894,520.64695 266,518.51343 C 256.21678,515.91051 237.4674,515.41217 226.5,517.46356 C 215.8527,519.45507 197.36968,525.32165 180,532.22282 C 167.51663,537.18261 167.47884,537.19037 151.58859,538.05397 C 142.83732,538.52959 135.14828,538.59951 134.50185,538.20936 C 132.06863,536.74083 105.2393,507.46754 105.66895,506.75 C 105.91595,506.3375 117.47019,506 131.34505,506 L 156.57206,506 L 171.53603,500.36453 C 200.2705,489.54304 223.41853,485.19554 246,486.37921 C 289.18734,488.64299 323.65798,508.3915 348.15469,544.90447 C 357.41095,558.70118 364.35469,572.4746 362.71368,573.78332 C 362.04616,574.31568 357.31875,576.68119 352.20834,579.04002 C 345.86537,581.96775 343.00923,583.80342 343.20834,584.82439 C 343.36875,585.64698 346.58748,588.1605 350.36106,590.41 C 366.31293,599.91919 381.17461,614.43583 392.71625,631.78185 C 399.80992,642.44298 407.35212,657.04834 406.30406,658.09442 C 405.86183,658.53582 400.36096,661.06228 394.0799,663.70878 C 387.79885,666.35528 382.49147,669.02559 382.28573,669.6428 C 382.07999,670.26002 385.67661,673.7049 390.27822,677.2981 C 404.80457,688.6411 418.67792,704.91203 431.84607,726.04966 C 437.07698,734.44636 437.9556,736.45194 436.84607,737.46281 C 436.10573,738.13731 427.0625,742.65183 416.75,747.49507 C 406.4375,752.3383 398,756.82094 398,757.45649 C 398,758.09203 401.98814,762.0588 406.86254,766.27154 C 417.3775,775.35916 427.37815,786.89191 436.24498,800.15533 C 444.13402,811.95615 452.50394,827.92457 451.34916,828.97164 C 450.88212,829.39511 434.27971,836.96305 414.45491,845.78926 C 369.99586,865.58291 371,865.1017 371,866.61431 C 371,869.59506 391.66388,871.97766 413.41153,871.50448 L 431.32306,871.11476 L 442.41153,864.374 z M 348.15716,841.83127 C 385.76841,824.87963 404,816.17517 404,815.16975 C 404,813.50556 394.08535,800.20538 387.10079,792.5 C 381.22956,786.02285 368.08383,774.08255 365.44759,772.83235 C 363.77457,772.03894 354.46595,775.84622 315.08843,793.42952 L 266.78167,815 L 235.96227,815 C 200.06839,815 201.47163,814.62735 202.53319,823.87746 C 204.95471,844.9779 214.91055,856.40752 236.52522,862.90137 C 246.31462,865.84246 254.87036,866.7279 274.90716,866.8735 L 292.31432,867 L 348.15716,841.83127 z M 324.50486,753.50174 C 359.64527,737.8277 388.81436,724.58564 389.32506,724.07494 C 392.84094,720.55906 366.36406,696.06128 350.79632,688.42615 L 345.23716,685.69968 L 292.61503,709.00601 L 239.9929,732.31234 L 186.07341,731.73965 C 145.77156,731.3116 131.76572,731.46158 130.61685,732.33348 C 128.26846,734.11573 126.97937,741.61826 128.05081,747.26791 C 130.18445,758.51856 136.46542,766.174 148.32511,771.97884 C 165.2872,780.28111 176.60402,781.7632 224.0566,781.89696 L 260.6132,782 L 324.50486,753.50174 z M 297.5,672.571 C 331.6,657.48556 359.92334,644.47438 360.44077,643.65726 C 362.33737,640.66213 346.48289,624.19365 332.9459,615.0976 C 324.67341,609.53897 312.09328,603.56866 306.14736,602.37947 C 303.83087,601.91617 293.23483,606.30054 252.68308,624.5016 L 202.10787,647.20155 L 168.80394,646.73621 C 143.98409,646.38941 133.0799,645.84744 126,644.60871 C 114.04375,642.5168 103.55544,639.68004 95.964478,636.48505 C 87.473419,632.91121 86.752942,633.09638 83.260603,639.75 C 77.216413,651.26542 76.697894,661.42616 81.611954,672.05641 C 86.742429,683.15482 98.519309,691.02124 116.80761,695.56552 C 131.80641,699.29243 139.12988,699.72896 189,699.86874 L 235.5,699.99908 L 297.5,672.571 z" />
  </defs>
  <use xlink:href="#main" />
</svg>
